<?xml version="1.0" encoding="utf-8"?>
<!-- Generator: Adobe Illustrator 26.0.2, SVG Export Plug-In . SVG Version: 6.00 Build 0)  -->
<svg version="1.1" id="Layer_1" xmlns="http://www.w3.org/2000/svg" xmlns:xlink="http://www.w3.org/1999/xlink" x="0px" y="0px"
	 viewBox="0 0 1280 1280" style="enable-background:new 0 0 1280 1280;" xml:space="preserve">
<style type="text/css">
	.st0{fill:url(#SVGID_1_);}
	.st1{fill:url(#SVGID_00000049944880113581393950000017618163128919373749_);}
	.st2{fill:url(#SVGID_00000061442779944053207380000001383386255462666389_);}
	.st3{fill:url(#SVGID_00000155143705787695528110000014201169871004505736_);}
	.st4{fill-rule:evenodd;clip-rule:evenodd;fill:url(#SVGID_00000074439802218094966830000008003332549474001074_);}
	.st5{fill-rule:evenodd;clip-rule:evenodd;fill:url(#SVGID_00000065035170047794870590000016585975030578559931_);}
	.st6{fill-rule:evenodd;clip-rule:evenodd;fill:url(#SVGID_00000102525498967912243380000004442483263751854265_);}
	.st7{fill-rule:evenodd;clip-rule:evenodd;fill:url(#SVGID_00000036249169981793672370000008404382909048881549_);}
	.st8{fill-rule:evenodd;clip-rule:evenodd;fill:url(#SVGID_00000144323850672383891850000003600428680855384977_);}
	.st9{fill-rule:evenodd;clip-rule:evenodd;fill:url(#SVGID_00000175301287108376475410000016537492372601853601_);}
	.st10{fill:url(#SVGID_00000024713939226038758760000004897452364052851884_);}
	.st11{fill-rule:evenodd;clip-rule:evenodd;fill:#FFFFFF;}
	.st12{fill:url(#SVGID_00000133497074186714705600000016378015121949856933_);}
	.st13{fill-rule:evenodd;clip-rule:evenodd;fill:url(#SVGID_00000140015313409222676280000005577250392302684607_);}
	.st14{fill-rule:evenodd;clip-rule:evenodd;fill:url(#SVGID_00000029027628579683484630000005321708176754117807_);}
	.st15{fill:#FFFFFF;}
	.st16{fill-rule:evenodd;clip-rule:evenodd;fill:url(#SVGID_00000095298040666147031570000002653049871312020096_);}
	.st17{fill-rule:evenodd;clip-rule:evenodd;fill:url(#SVGID_00000121986544401054901920000000293558328667289531_);}
</style>
<g>
	<linearGradient id="SVGID_1_" gradientUnits="userSpaceOnUse" x1="1.724002e-07" y1="640" x2="1280" y2="640">
		<stop  offset="0" style="stop-color:#FF6633"/>
		<stop  offset="0.3304" style="stop-color:#FD5D32"/>
		<stop  offset="0.8782" style="stop-color:#F7432E"/>
		<stop  offset="0.9944" style="stop-color:#F53D2D"/>
	</linearGradient>
	<rect x="0" y="0" style="fill-rule:evenodd;clip-rule:evenodd;fill:url(#SVGID_1_);" width="1280" height="1280"/>
</g>
<g>
	<g>
		<g>
			<g>
				<path class="st15" d="M592.88,841.17V623.65h132.35v42.28H637.3v45.03h68.93v42.28H637.3v87.93H592.88z"/>
			</g>
			<g>
				<path class="st15" d="M863.4,821.41c-15.73,15.42-34.73,23.13-56.99,23.13c-22.26,0-41.26-7.71-56.98-23.13
					c-15.73-15.42-23.59-34.36-23.59-56.83c0-22.26,7.86-41.15,23.59-56.68c15.72-15.52,34.72-23.28,56.98-23.28
					c22.26,0,41.26,7.77,56.99,23.28c15.72,15.52,23.59,34.42,23.59,56.68C886.99,787.05,879.12,805.99,863.4,821.41z
					 M806.41,805.32c10.82,0,19.86-3.83,27.11-11.49c7.25-7.66,10.88-17.41,10.88-29.26c0-11.84-3.63-21.6-10.88-29.26
					c-7.25-7.66-16.29-11.49-27.11-11.49c-11.03,0-20.17,3.83-27.42,11.49c-7.25,7.66-10.88,17.41-10.88,29.26
					c0,11.85,3.62,21.6,10.88,29.26C786.24,801.49,795.38,805.32,806.41,805.32z"/>
			</g>
			<g>
				<path class="st15" d="M1040.78,821.41c-15.73,15.42-34.72,23.13-56.98,23.13c-22.27,0-41.26-7.71-56.99-23.13
					c-15.73-15.42-23.59-34.36-23.59-56.83c0-22.26,7.86-41.15,23.59-56.68c15.72-15.52,34.72-23.28,56.99-23.28
					c22.26,0,41.25,7.77,56.98,23.28c15.72,15.52,23.59,34.42,23.59,56.68C1064.37,787.05,1056.51,805.99,1040.78,821.41z
					 M983.8,805.32c10.82,0,19.86-3.83,27.11-11.49c7.25-7.66,10.88-17.41,10.88-29.26c0-11.84-3.63-21.6-10.88-29.26
					c-7.25-7.66-16.29-11.49-27.11-11.49c-11.03,0-20.17,3.83-27.42,11.49c-7.25,7.66-10.87,17.41-10.87,29.26
					c0,11.85,3.62,21.6,10.87,29.26C963.63,801.49,972.77,805.32,983.8,805.32z"/>
			</g>
			<g>
				<path class="st15" d="M1152.91,844.54c-20.22,0-37.28-7.86-51.16-23.59c-13.89-15.72-20.83-34.51-20.83-56.37
					c0-21.85,6.94-40.64,20.83-56.37c13.88-15.72,30.94-23.59,51.16-23.59c9.8,0,18.58,2.05,26.35,6.13
					c7.76,4.09,13.68,8.88,17.77,14.4V611.4H1239v229.77h-41.97v-17.16c-4.08,5.51-10,10.31-17.77,14.4
					C1171.49,842.5,1162.71,844.54,1152.91,844.54z M1133.76,794.6c7.05,7.77,16.39,11.64,28.03,11.64
					c11.64,0,20.99-3.88,28.03-11.64c7.05-7.76,10.57-17.77,10.57-30.02c0-12.26-3.52-22.26-10.57-30.02
					c-7.05-7.76-16.39-11.64-28.03-11.64c-11.64,0-20.99,3.88-28.03,11.64c-7.05,7.77-10.57,17.77-10.57,30.02
					C1123.19,776.83,1126.72,786.84,1133.76,794.6z"/>
			</g>
		</g>
		<g>
			<g>
				<path class="st11" d="M1234.01,517.64c0.11,0,0.11,0,0.22,0c2.66-0.12,4.77-2.39,4.77-5.15c0-0.13,0-0.25-0.01-0.43
					c0-0.03,0-0.1,0-0.32c0-26.04-20.41-47.14-45.59-47.14c-25.17,0-45.58,21.1-45.58,47.14c0,1.94,0.11,3.88,0.34,5.8l0.01,0.1
					l0.07,0.51c1.25,9.37,5.25,17.97,11.56,24.92c0,0,0,0,0.04,0.04c7,7.7,16.5,12.95,27.04,14.92l0.14,0.03v-0.01l0.68,0.11
					c0.35,0.06,0.72,0.12,1.22,0.2c13.87,1.67,26.18-0.33,36.6-5.58c2.57-1.29,4.87-2.72,6.87-4.23c0.64-0.49,1.22-0.96,1.72-1.39
					c0.26-0.23,0.46-0.42,0.57-0.53c2.35-2.42,2.5-3.28,1.08-5.49c-1.56-2.49-2.94-4.6-4.12-6.36c-0.41-0.61-0.77-1.14-1.08-1.57
					c-0.17-0.24-0.17-0.24-0.27-0.39c-0.04-0.06-0.04-0.06-0.07-0.1l-0.01-0.02c-1.28-1.6-2.16-1.75-3.59-0.49
					c-0.15,0.13-0.66,0.53-0.75,0.62c-10.02,8.9-23.71,11.77-37.38,8.91c-2.55-0.68-4.93-1.55-7.12-2.6
					c-8.56-4.29-14.63-11.95-16.38-20.8l-0.14-0.7h68.97C1233.9,517.64,1233.9,517.64,1234.01,517.64z M1165.89,501.31l0.23-0.76h0
					c3.61-11.79,14.54-19.65,27.3-19.65c12.17,0,23.76,8.27,27.77,19.63l0.27,0.78H1165.89z"/>
			</g>
			<g>
				<path class="st11" d="M1125.54,517.64c0.11,0,0.11,0,0.22,0c2.66-0.12,4.77-2.39,4.77-5.15c0-0.13,0-0.25-0.01-0.43
					c0-0.03,0-0.1,0-0.32c0-26.04-20.41-47.14-45.58-47.14c-25.17,0-45.58,21.1-45.58,47.14c0,1.94,0.11,3.88,0.34,5.8l0.01,0.1
					l0.07,0.51c1.25,9.37,5.25,17.97,11.56,24.92c0,0,0,0,0.04,0.04c7,7.7,16.5,12.95,27.04,14.92l0.14,0.03v-0.01l0.68,0.11
					c0.35,0.06,0.72,0.12,1.22,0.2c13.87,1.67,26.18-0.33,36.6-5.58c2.57-1.29,4.87-2.72,6.87-4.23c0.64-0.49,1.22-0.96,1.72-1.39
					c0.26-0.23,0.46-0.42,0.57-0.53c2.35-2.42,2.5-3.28,1.08-5.49c-1.56-2.49-2.94-4.6-4.12-6.36c-0.41-0.61-0.77-1.14-1.07-1.57
					c-0.17-0.24-0.17-0.24-0.27-0.39c-0.04-0.06-0.04-0.06-0.07-0.1l-0.01-0.02c-1.29-1.6-2.16-1.75-3.59-0.49
					c-0.15,0.13-0.66,0.53-0.75,0.62c-10.02,8.9-23.71,11.77-37.38,8.91c-2.55-0.68-4.93-1.55-7.12-2.6
					c-8.56-4.29-14.63-11.95-16.38-20.8l-0.14-0.7h68.97C1125.43,517.64,1125.43,517.64,1125.54,517.64z M1057.42,501.31l0.23-0.76
					c3.61-11.79,14.54-19.65,27.29-19.65c12.17,0,23.76,8.27,27.77,19.63l0.27,0.78H1057.42z"/>
			</g>
			<g>
				<path class="st11" d="M974.88,464.98L974.88,464.98c-11.12,0-21.75,3.79-30.28,10.73l-0.97,0.79v-8.69
					c0-2.32-0.5-2.83-2.84-2.83h-10.91c-2.38,0-2.85,0.47-2.85,2.83v138.59c0,2.28,0.53,2.83,2.85,2.83h10.91
					c2.32,0,2.84-0.54,2.84-2.83v-57.8l0.97,0.79c8.54,6.95,19.17,10.73,30.28,10.73c26.43,0,47.86-21.3,47.86-47.57
					C1022.73,486.28,1001.31,464.98,974.88,464.98z M974.87,543.59L974.87,543.59c-16.95,0-30.82-13.44-31.25-30.29v-1.59
					c0.42-16.82,14.29-30.26,31.25-30.26c17.26,0,31.25,13.91,31.25,31.07C1006.12,529.68,992.13,543.59,974.87,543.59z"/>
			</g>
			<g>
				<path class="st11" d="M862.49,464.59c-26.48,0-47.95,21.12-47.95,47.16c0,26.05,21.47,47.16,47.95,47.16
					c26.48,0,47.95-21.12,47.95-47.16C910.44,485.71,888.98,464.59,862.49,464.59z M862.48,542.53c-17.3,0-31.32-13.79-31.32-30.8
					s14.02-30.8,31.32-30.8c17.29,0,31.31,13.79,31.31,30.8C893.8,528.74,879.78,542.53,862.48,542.53z"/>
			</g>
			<path class="st11" d="M755.6,465.64c-9.67,0-19.02,3.11-26.78,8.85l-0.94,0.7v-64.36c0-2.13-0.7-2.83-2.83-2.83h-11.42
				c-2.31,0-2.83,0.55-2.83,2.83v146.83c0,2.22,0.57,2.83,2.83,2.83h11.42c2.12,0,2.83-0.73,2.83-2.83V509.7
				c0.12-15.1,12.5-27.28,27.73-27.28c15.27,0,27.66,12.24,27.73,27.39v47.85c0,2.43,0.4,2.83,2.83,2.83h11.4
				c2.42,0,2.83-0.41,2.83-2.83v-47.99C800.3,485.46,780.12,465.64,755.6,465.64"/>
			<path class="st11" d="M596.43,533.86l-0.03,0.04c-1.63,2.47-2.31,3.51-2.69,4.1c-1.28,1.91-1.12,2.76,0.84,4.42
				c4.58,3.69,10.46,7.56,14.43,9.5c11.04,5.4,22.97,8.25,35.61,8.51c8.16,0.41,18.42-1.53,26.05-4.93
				c13.82-6.17,22.63-18.19,24.17-32.99c2.5-23.99-13.11-38.98-53.31-51.07l-0.01,0c-18.73-6.04-27.53-14.07-27.53-25.28
				c0.55-12.39,12.04-21.65,27.54-22.23c12.49,0.03,23.53,3.35,34.38,10.33c2.29,1.39,3.34,1.13,4.88-0.86
				c0.18-0.29,0.67-1.01,2.72-3.96l0.01-0.01c1.92-2.76,2.55-3.68,2.71-3.95c1.3-2.44,1.11-3.38-1.23-5.04
				c-2.3-1.65-8.79-5.03-12.5-6.51c-10.32-4.12-20.99-6.12-31.61-5.91c-24.17,0.52-43.01,16.24-44.26,36.86
				c-0.79,14.89,6.77,26.87,22.56,35.72c4.43,2.34,20.62,8.46,28.17,10.67c21.48,6.29,32.69,17.87,30.37,31.52
				c-2.1,12.41-15.1,20.66-33.34,21.22c-13.23-0.28-26.56-5.12-38.13-13.82c-0.06-0.04-0.35-0.26-0.89-0.66
				c-0.76-0.57-0.76-0.57-0.87-0.65c-2.36-1.63-3.75-1.49-5.19,0.65C599.1,529.79,597.31,532.52,596.43,533.86"/>
		</g>
	</g>
	<path class="st15" d="M412.9,408H259.87H106.84l-56.3,82.29c0,0,11.87,238.22,11.87,318.39c0,12.94,16.1,35.86,28.83,35.86h168.63
		H428.5c12.73,0,28.83-22.92,28.83-35.86c0-80.17,11.87-318.39,11.87-318.39L412.9,408z M349.74,496.43h-89.87H170v-40.6
		c0-7.18,5.82-12.99,12.99-12.99h76.88h76.88c7.18,0,12.99,5.82,12.99,12.99V496.43z"/>
	<g>
		
			<linearGradient id="SVGID_00000145744551332729285600000018053119757531736224_" gradientUnits="userSpaceOnUse" x1="122.703" y1="697.3105" x2="219.933" y2="697.3105">
			<stop  offset="0" style="stop-color:#FF6633"/>
			<stop  offset="0.3304" style="stop-color:#FD5D32"/>
			<stop  offset="0.8782" style="stop-color:#F7432E"/>
			<stop  offset="0.9944" style="stop-color:#F53D2D"/>
		</linearGradient>
		<path style="fill-rule:evenodd;clip-rule:evenodd;fill:url(#SVGID_00000145744551332729285600000018053119757531736224_);" d="
			M219.93,690.44c0.08,5.33-28.26,35.73-28.26,35.73l-4.36,118.37h-31.96l-4.4-118.37c0,0-28.34-30.4-28.26-35.73
			c0.08-3.81,0-9.03,0-9.03l2.88-128.37c0-1.63,1.32-2.96,2.96-2.96c0,0,5.96,0,9.54,0h1.67c0.39,0,0.74,0.12,1.01,0.31
			c1.75,0.31,3.46,1.01,3.85,2.72c0,0,0.08,0,0.08,0.04l0.04,0.58v2.65c0,0,0.54,25.96,1.05,52.35c0.58,26.39,1.17,53.17,1.25,54.76
			c0.58,0.7,4.63,4.63,8.45,4.52c3.81-0.12,8.21-4.63,8.21-4.63v-24.91c0,0,0-79.71,0-83.88c0-4.13,5.99-4.52,5.99-4.52h3.35
			c0,0,5.92,0.39,5.92,4.52c0,4.16,0,83.88,0,83.88v24.91c0,0,4.4,4.52,8.21,4.63c3.81,0.12,7.86-3.81,8.49-4.52
			c0.23-3.19,2.26-107.12,2.26-107.12l0.08-2.65v-0.58c0-0.04,0.04-0.04,0.04-0.04c0.39-1.71,2.1-2.41,3.85-2.72
			c0.31-0.19,0.62-0.31,1.01-0.31h1.75c3.5,0,9.46,0,9.46,0c1.63,0,3,1.32,3,2.96l2.84,128.37
			C219.93,681.41,219.89,686.63,219.93,690.44z"/>
		
			<linearGradient id="SVGID_00000029767106225684473430000017303660685934615482_" gradientUnits="userSpaceOnUse" x1="260.4516" y1="697.4662" x2="397.0327" y2="697.4662">
			<stop  offset="0" style="stop-color:#FF6633"/>
			<stop  offset="0.3304" style="stop-color:#FD5D32"/>
			<stop  offset="0.8782" style="stop-color:#F7432E"/>
			<stop  offset="0.9944" style="stop-color:#F53D2D"/>
		</linearGradient>
		<path style="fill-rule:evenodd;clip-rule:evenodd;fill:url(#SVGID_00000029767106225684473430000017303660685934615482_);" d="
			M397.03,637.54c0,47.49-30.52,80.96-43.55,93.14c-3.58,3.31-5.99,8.33-6.23,13.78c-1.01,23.98-3.81,89.6-4.28,100.07h-28.45
			c-0.47-10.47-3.27-76.09-4.28-100.07c-0.23-5.45-2.65-10.47-6.23-13.78c-13.04-12.18-43.55-45.66-43.55-93.14
			c0-60.41,41.53-87.15,68.27-87.15C355.5,550.4,397.03,577.14,397.03,637.54z"/>
	</g>
</g>
</svg>
