<?xml version="1.0" encoding="utf-8"?>
<!-- Generator: Adobe Illustrator 26.0.2, SVG Export Plug-In . SVG Version: 6.00 Build 0)  -->
<svg version="1.1" id="Layer_1" xmlns="http://www.w3.org/2000/svg" xmlns:xlink="http://www.w3.org/1999/xlink" x="0px" y="0px"
	 viewBox="0 0 1280 1280" style="enable-background:new 0 0 1280 1280;" xml:space="preserve">
<style type="text/css">
	.st0{fill:url(#SVGID_1_);}
	.st1{fill:url(#SVGID_00000031166945708058982520000007322731918411679650_);}
	.st2{fill:url(#SVGID_00000160900681910437911100000007656458562433451950_);}
	.st3{fill:url(#SVGID_00000099657758145125006050000001028604147084244626_);}
	.st4{fill-rule:evenodd;clip-rule:evenodd;fill:url(#SVGID_00000002355649208315152690000015513650179187087281_);}
	.st5{fill-rule:evenodd;clip-rule:evenodd;fill:url(#SVGID_00000173145322425104447510000007323974761985310100_);}
	.st6{fill-rule:evenodd;clip-rule:evenodd;fill:url(#SVGID_00000159462295688446725790000018419849471056776882_);}
	.st7{fill-rule:evenodd;clip-rule:evenodd;fill:url(#SVGID_00000168082511096588226200000007823529013959763611_);}
	.st8{fill-rule:evenodd;clip-rule:evenodd;fill:url(#SVGID_00000147210875549886014650000008730611722608367010_);}
	.st9{fill-rule:evenodd;clip-rule:evenodd;fill:url(#SVGID_00000061437250900562520280000008772899430952502145_);}
	.st10{fill:url(#SVGID_00000049193149534032392610000009270392788002574255_);}
	.st11{fill-rule:evenodd;clip-rule:evenodd;fill:#FFFFFF;}
	.st12{fill:url(#SVGID_00000014633185850508122050000000001945729481280163_);}
	.st13{fill-rule:evenodd;clip-rule:evenodd;fill:url(#SVGID_00000111884323709338284560000014248813870914777016_);}
	.st14{fill-rule:evenodd;clip-rule:evenodd;fill:url(#SVGID_00000010991631718184580650000010411688874169257647_);}
	.st15{fill:#FFFFFF;}
	.st16{fill-rule:evenodd;clip-rule:evenodd;fill:url(#SVGID_00000043418203922661007710000008396156203667439503_);}
	.st17{fill-rule:evenodd;clip-rule:evenodd;fill:url(#SVGID_00000055682787802240619650000003265462326063979421_);}
</style>
<g>
	<g>
		<g>
			<g>
				<linearGradient id="SVGID_1_" gradientUnits="userSpaceOnUse" x1="586.2162" y1="733.0372" x2="727.697" y2="733.0372">
					<stop  offset="0" style="stop-color:#FF6633"/>
					<stop  offset="0.3304" style="stop-color:#FD5D32"/>
					<stop  offset="0.8782" style="stop-color:#F7432E"/>
					<stop  offset="0.9944" style="stop-color:#F53D2D"/>
				</linearGradient>
				<path class="st0" d="M586.22,849.3V616.77H727.7v45.19H633.7v48.14h73.69v45.2H633.7v93.99H586.22z"/>
			</g>
			<g>
				
					<linearGradient id="SVGID_00000122697950489755032730000016451873107926300811_" gradientUnits="userSpaceOnUse" x1="728.3483" y1="767.4233" x2="900.6144" y2="767.4233">
					<stop  offset="0" style="stop-color:#FF6633"/>
					<stop  offset="0.3304" style="stop-color:#FD5D32"/>
					<stop  offset="0.8782" style="stop-color:#F7432E"/>
					<stop  offset="0.9944" style="stop-color:#F53D2D"/>
				</linearGradient>
				<path style="fill:url(#SVGID_00000122697950489755032730000016451873107926300811_);" d="M875.4,828.18
					c-16.82,16.49-37.12,24.72-60.92,24.72c-23.8,0-44.11-8.24-60.91-24.72c-16.81-16.48-25.22-36.73-25.22-60.75
					c0-23.8,8.4-43.99,25.22-60.59c16.81-16.59,37.12-24.89,60.91-24.89c23.8,0,44.1,8.3,60.92,24.89
					c16.81,16.59,25.21,36.79,25.21,60.59C900.61,791.44,892.21,811.69,875.4,828.18z M814.48,810.98
					c11.57,0,21.23-4.09,28.98-12.28c7.75-8.19,11.63-18.61,11.63-31.28c0-12.66-3.88-23.09-11.63-31.27
					c-7.75-8.19-17.41-12.28-28.98-12.28c-11.79,0-21.56,4.09-29.31,12.28c-7.75,8.18-11.63,18.61-11.63,31.27
					c0,12.67,3.87,23.09,11.63,31.28C792.92,806.89,802.69,810.98,814.48,810.98z"/>
			</g>
			<g>
				
					<linearGradient id="SVGID_00000088821080263069851490000016072255191755810957_" gradientUnits="userSpaceOnUse" x1="917.9713" y1="767.4233" x2="1090.2373" y2="767.4233">
					<stop  offset="0" style="stop-color:#FF6633"/>
					<stop  offset="0.3304" style="stop-color:#FD5D32"/>
					<stop  offset="0.8782" style="stop-color:#F7432E"/>
					<stop  offset="0.9944" style="stop-color:#F53D2D"/>
				</linearGradient>
				<path style="fill:url(#SVGID_00000088821080263069851490000016072255191755810957_);" d="M1065.02,828.18
					c-16.82,16.49-37.12,24.72-60.91,24.72c-23.8,0-44.11-8.24-60.92-24.72c-16.81-16.48-25.22-36.73-25.22-60.75
					c0-23.8,8.4-43.99,25.22-60.59c16.81-16.59,37.12-24.89,60.92-24.89c23.8,0,44.1,8.3,60.91,24.89
					c16.81,16.59,25.21,36.79,25.21,60.59C1090.24,791.44,1081.83,811.69,1065.02,828.18z M1004.11,810.98
					c11.57,0,21.23-4.09,28.98-12.28c7.75-8.19,11.63-18.61,11.63-31.28c0-12.66-3.88-23.09-11.63-31.27
					c-7.75-8.19-17.41-12.28-28.98-12.28c-11.79,0-21.56,4.09-29.31,12.28c-7.75,8.18-11.62,18.61-11.62,31.27
					c0,12.67,3.87,23.09,11.62,31.28C982.55,806.89,992.32,810.98,1004.11,810.98z"/>
			</g>
			<g>
				
					<linearGradient id="SVGID_00000037670982430340552810000009010398311823510422_" gradientUnits="userSpaceOnUse" x1="1107.926" y1="728.2874" x2="1276.9149" y2="728.2874">
					<stop  offset="0" style="stop-color:#FF6633"/>
					<stop  offset="0.3304" style="stop-color:#FD5D32"/>
					<stop  offset="0.8782" style="stop-color:#F7432E"/>
					<stop  offset="0.9944" style="stop-color:#F53D2D"/>
				</linearGradient>
				<path style="fill:url(#SVGID_00000037670982430340552810000009010398311823510422_);" d="M1184.89,852.9
					c-21.61,0-39.85-8.4-54.69-25.22c-14.85-16.81-22.27-36.89-22.27-60.26c0-23.36,7.42-43.45,22.27-60.26
					c14.84-16.81,33.08-25.22,54.69-25.22c10.48,0,19.86,2.19,28.17,6.55c8.3,4.37,14.63,9.5,18.99,15.39V603.67h44.87V849.3h-44.87
					v-18.34c-4.36,5.89-10.69,11.03-18.99,15.39C1204.75,850.72,1195.37,852.9,1184.89,852.9z M1164.42,799.52
					c7.53,8.3,17.52,12.45,29.97,12.45s22.43-4.14,29.97-12.45c7.53-8.3,11.3-19,11.3-32.1c0-13.1-3.77-23.8-11.3-32.1
					c-7.53-8.29-17.52-12.45-29.97-12.45s-22.43,4.15-29.97,12.45c-7.53,8.3-11.3,19-11.3,32.1
					C1153.12,780.52,1156.89,791.22,1164.42,799.52z"/>
			</g>
		</g>
		<g>
			<g>
				
					<linearGradient id="SVGID_00000170253898385457167030000004163893519554972311_" gradientUnits="userSpaceOnUse" x1="1179.444" y1="497.1586" x2="1276.9149" y2="497.1586">
					<stop  offset="0" style="stop-color:#FF6633"/>
					<stop  offset="0.3304" style="stop-color:#FD5D32"/>
					<stop  offset="0.8782" style="stop-color:#F7432E"/>
					<stop  offset="0.9944" style="stop-color:#F53D2D"/>
				</linearGradient>
				<path style="fill-rule:evenodd;clip-rule:evenodd;fill:url(#SVGID_00000170253898385457167030000004163893519554972311_);" d="
					M1271.58,503.45c0.12,0,0.12,0,0.24,0c2.84-0.13,5.1-2.56,5.1-5.51c0-0.14,0-0.27-0.01-0.46c0-0.04,0-0.11,0-0.34
					c0-27.83-21.82-50.39-48.73-50.39c-26.91,0-48.73,22.56-48.73,50.39c0,2.07,0.12,4.14,0.36,6.2l0.01,0.11l0.08,0.54
					c1.34,10.01,5.61,19.21,12.36,26.64c0,0,0,0,0.04,0.04c7.48,8.23,17.64,13.85,28.91,15.95l0.15,0.03v-0.01l0.73,0.12
					c0.38,0.06,0.77,0.13,1.3,0.21c14.83,1.78,27.99-0.35,39.13-5.96c2.74-1.38,5.21-2.91,7.35-4.52c0.69-0.52,1.31-1.02,1.84-1.49
					c0.28-0.24,0.5-0.45,0.61-0.56c2.51-2.59,2.67-3.51,1.15-5.87c-1.67-2.66-3.14-4.92-4.4-6.79c-0.44-0.66-0.83-1.22-1.15-1.68
					c-0.18-0.25-0.18-0.25-0.29-0.42c-0.04-0.06-0.04-0.06-0.07-0.1l-0.01-0.02c-1.37-1.71-2.31-1.87-3.84-0.52
					c-0.16,0.14-0.71,0.56-0.8,0.67c-10.72,9.52-25.35,12.58-39.96,9.52c-2.72-0.73-5.27-1.66-7.61-2.78
					c-9.16-4.59-15.64-12.77-17.51-22.24l-0.15-0.75h73.72C1271.46,503.44,1271.46,503.44,1271.58,503.45z M1198.76,485.99
					l0.25-0.81h0c3.86-12.6,15.55-21,29.18-21c13.01,0,25.4,8.84,29.68,20.98l0.29,0.83H1198.76z"/>
			</g>
			<g>
				
					<linearGradient id="SVGID_00000061471342642668757990000011011543773559849347_" gradientUnits="userSpaceOnUse" x1="1063.4873" y1="497.1586" x2="1160.9581" y2="497.1586">
					<stop  offset="0" style="stop-color:#FF6633"/>
					<stop  offset="0.3304" style="stop-color:#FD5D32"/>
					<stop  offset="0.8782" style="stop-color:#F7432E"/>
					<stop  offset="0.9944" style="stop-color:#F53D2D"/>
				</linearGradient>
				<path style="fill-rule:evenodd;clip-rule:evenodd;fill:url(#SVGID_00000061471342642668757990000011011543773559849347_);" d="
					M1155.63,503.45c0.12,0,0.12,0,0.24,0c2.84-0.13,5.09-2.56,5.09-5.51c0-0.14,0-0.27-0.01-0.46c0-0.04,0-0.11,0-0.34
					c0-27.83-21.82-50.39-48.73-50.39c-26.91,0-48.73,22.56-48.73,50.39c0,2.07,0.12,4.14,0.36,6.2l0.01,0.11l0.08,0.54
					c1.34,10.01,5.61,19.21,12.36,26.64c0,0,0,0,0.04,0.04c7.48,8.23,17.64,13.85,28.91,15.95l0.15,0.03v-0.01l0.73,0.12
					c0.38,0.06,0.77,0.13,1.31,0.21c14.83,1.78,27.99-0.35,39.12-5.96c2.74-1.38,5.21-2.91,7.35-4.52c0.69-0.52,1.31-1.02,1.84-1.49
					c0.28-0.24,0.5-0.45,0.61-0.56c2.51-2.59,2.67-3.51,1.15-5.87c-1.67-2.66-3.14-4.92-4.4-6.79c-0.44-0.66-0.83-1.22-1.15-1.68
					c-0.18-0.25-0.18-0.25-0.29-0.42c-0.04-0.06-0.04-0.06-0.07-0.1l-0.01-0.02c-1.37-1.71-2.31-1.87-3.84-0.52
					c-0.16,0.14-0.71,0.56-0.8,0.67c-10.72,9.52-25.35,12.58-39.96,9.52c-2.72-0.73-5.27-1.66-7.61-2.78
					c-9.16-4.59-15.64-12.77-17.51-22.24l-0.15-0.75h73.72C1155.51,503.44,1155.51,503.44,1155.63,503.45z M1082.8,485.99l0.25-0.81
					c3.86-12.6,15.55-21,29.18-21c13.01,0,25.4,8.84,29.68,20.98l0.29,0.83H1082.8z"/>
			</g>
			<g>
				
					<linearGradient id="SVGID_00000123404303875029862170000009635429613797636534_" gradientUnits="userSpaceOnUse" x1="943.4053" y1="524.2521" x2="1045.7262" y2="524.2521">
					<stop  offset="0" style="stop-color:#FF6633"/>
					<stop  offset="0.3304" style="stop-color:#FD5D32"/>
					<stop  offset="0.8782" style="stop-color:#F7432E"/>
					<stop  offset="0.9944" style="stop-color:#F53D2D"/>
				</linearGradient>
				<path style="fill-rule:evenodd;clip-rule:evenodd;fill:url(#SVGID_00000123404303875029862170000009635429613797636534_);" d="
					M994.57,447.15L994.57,447.15c-11.89,0-23.25,4.05-32.37,11.47l-1.04,0.84v-9.29c0-2.48-0.53-3.02-3.04-3.02h-11.67
					c-2.54,0-3.04,0.51-3.04,3.02v148.15c0,2.43,0.57,3.02,3.04,3.02h11.67c2.48,0,3.04-0.58,3.04-3.02v-61.78l1.04,0.84
					c9.13,7.43,20.49,11.48,32.37,11.48c28.25,0,51.16-22.77,51.16-50.86C1045.73,469.92,1022.82,447.15,994.57,447.15z
					 M994.56,531.19L994.56,531.19c-18.12,0-32.95-14.37-33.4-32.38v-1.69c0.45-17.98,15.28-32.35,33.4-32.35
					c18.45,0,33.41,14.87,33.41,33.21C1027.97,516.32,1013.01,531.19,994.56,531.19z"/>
			</g>
			<g>
				
					<linearGradient id="SVGID_00000151523751871086864860000009217688405277411773_" gradientUnits="userSpaceOnUse" x1="823.1712" y1="497.1586" x2="925.6837" y2="497.1586">
					<stop  offset="0" style="stop-color:#FF6633"/>
					<stop  offset="0.3304" style="stop-color:#FD5D32"/>
					<stop  offset="0.8782" style="stop-color:#F7432E"/>
					<stop  offset="0.9944" style="stop-color:#F53D2D"/>
				</linearGradient>
				<path style="fill-rule:evenodd;clip-rule:evenodd;fill:url(#SVGID_00000151523751871086864860000009217688405277411773_);" d="
					M874.43,446.74c-28.31,0-51.26,22.57-51.26,50.42c0,27.84,22.95,50.42,51.26,50.42c28.31,0,51.25-22.57,51.25-50.42
					C925.68,469.32,902.74,446.74,874.43,446.74z M874.42,530.06c-18.49,0-33.48-14.74-33.48-32.92s14.99-32.93,33.48-32.93
					c18.49,0,33.48,14.74,33.48,32.93C907.89,515.32,892.91,530.06,874.42,530.06z"/>
			</g>
			
				<linearGradient id="SVGID_00000047057373869261113100000004678189352305262241_" gradientUnits="userSpaceOnUse" x1="712.2561" y1="467.7493" x2="808.0463" y2="467.7493">
				<stop  offset="0" style="stop-color:#FF6633"/>
				<stop  offset="0.3304" style="stop-color:#FD5D32"/>
				<stop  offset="0.8782" style="stop-color:#F7432E"/>
				<stop  offset="0.9944" style="stop-color:#F53D2D"/>
			</linearGradient>
			<path style="fill-rule:evenodd;clip-rule:evenodd;fill:url(#SVGID_00000047057373869261113100000004678189352305262241_);" d="
				M760.17,447.86c-10.33,0-20.34,3.32-28.63,9.46l-1.01,0.75v-68.8c0-2.28-0.75-3.02-3.03-3.02h-12.21c-2.47,0-3.03,0.59-3.03,3.02
				v156.96c0,2.38,0.61,3.03,3.03,3.03h12.21c2.27,0,3.03-0.78,3.03-3.03v-51.27c0.13-16.14,13.36-29.17,29.64-29.17
				c16.32,0,29.57,13.09,29.64,29.28v51.15c0,2.6,0.43,3.03,3.03,3.03h12.18c2.58,0,3.03-0.44,3.03-3.03v-51.3
				C807.95,469.05,786.37,447.86,760.17,447.86"/>
			
				<linearGradient id="SVGID_00000130616981853770173440000006517135282527297170_" gradientUnits="userSpaceOnUse" x1="586.2162" y1="467.7493" x2="695.4507" y2="467.7493">
				<stop  offset="0" style="stop-color:#FF6633"/>
				<stop  offset="0.3304" style="stop-color:#FD5D32"/>
				<stop  offset="0.8782" style="stop-color:#F7432E"/>
				<stop  offset="0.9944" style="stop-color:#F53D2D"/>
			</linearGradient>
			<path style="fill-rule:evenodd;clip-rule:evenodd;fill:url(#SVGID_00000130616981853770173440000006517135282527297170_);" d="
				M590.01,520.78l-0.03,0.04c-1.74,2.64-2.47,3.75-2.88,4.38c-1.37,2.04-1.2,2.95,0.89,4.73c4.89,3.94,11.18,8.09,15.42,10.16
				c11.8,5.77,24.55,8.82,38.07,9.1c8.73,0.44,19.69-1.64,27.85-5.28c14.78-6.59,24.19-19.44,25.84-35.27
				c2.67-25.64-14.01-41.67-56.99-54.59l-0.01,0c-20.02-6.46-29.43-15.04-29.43-27.03c0.59-13.25,12.87-23.14,29.44-23.76
				c13.35,0.03,25.15,3.58,36.75,11.04c2.45,1.48,3.57,1.21,5.22-0.92c0.19-0.32,0.71-1.08,2.91-4.23l0.01-0.01
				c2.05-2.95,2.73-3.93,2.9-4.22c1.39-2.61,1.19-3.61-1.31-5.38c-2.46-1.76-9.4-5.37-13.37-6.96c-11.03-4.4-22.44-6.54-33.79-6.32
				c-25.83,0.56-45.98,17.36-47.31,39.4c-0.84,15.92,7.24,28.72,24.12,38.19c4.73,2.5,22.04,9.04,30.11,11.41
				c22.97,6.73,34.94,19.1,32.47,33.7c-2.25,13.26-16.14,22.08-35.64,22.69c-14.14-0.29-28.39-5.48-40.76-14.77
				c-0.06-0.04-0.38-0.28-0.95-0.71c-0.81-0.61-0.81-0.61-0.93-0.7c-2.52-1.74-4.01-1.6-5.55,0.7
				C592.87,516.44,590.95,519.35,590.01,520.78"/>
		</g>
	</g>
	
		<linearGradient id="SVGID_00000100351243528650925350000014653802628711138489_" gradientUnits="userSpaceOnUse" x1="6.4468" y1="619.5721" x2="454.0055" y2="619.5721">
		<stop  offset="0" style="stop-color:#FF6633"/>
		<stop  offset="0.3304" style="stop-color:#FD5D32"/>
		<stop  offset="0.8782" style="stop-color:#F7432E"/>
		<stop  offset="0.9944" style="stop-color:#F53D2D"/>
	</linearGradient>
	<path style="fill:url(#SVGID_00000100351243528650925350000014653802628711138489_);" d="M393.82,386.24H230.23H66.64L6.45,474.21
		c0,0,12.69,254.66,12.69,340.36c0,13.83,17.21,38.33,30.82,38.33h180.27h180.27c13.61,0,30.82-24.5,30.82-38.33
		c0-85.7,12.69-340.36,12.69-340.36L393.82,386.24z M326.3,480.77h-96.07h-96.07v-43.41c0-7.67,6.22-13.89,13.89-13.89h82.18h82.18
		c7.67,0,13.89,6.22,13.89,13.89V480.77z"/>
	<g>
		<path class="st11" d="M187.54,688.17c0.08,5.7-30.21,38.2-30.21,38.2l-4.66,126.53h-34.16l-4.7-126.53c0,0-30.29-32.5-30.21-38.2
			c0.08-4.08,0-9.65,0-9.65l3.08-137.23c0-1.75,1.41-3.16,3.16-3.16c0,0,6.37,0,10.19,0h1.79c0.42,0,0.79,0.12,1.08,0.33
			c1.87,0.33,3.7,1.08,4.12,2.91c0,0,0.08,0,0.08,0.04l0.04,0.62v2.83c0,0,0.58,27.75,1.12,55.96c0.62,28.21,1.25,56.84,1.33,58.54
			c0.62,0.75,4.95,4.95,9.03,4.83c4.08-0.12,8.78-4.95,8.78-4.95v-26.63c0,0,0-85.21,0-89.67c0-4.41,6.41-4.83,6.41-4.83h3.58
			c0,0,6.32,0.42,6.32,4.83c0,4.45,0,89.67,0,89.67v26.63c0,0,4.7,4.83,8.78,4.95c4.08,0.12,8.4-4.08,9.07-4.83
			c0.25-3.41,2.41-114.51,2.41-114.51l0.08-2.83v-0.62c0-0.04,0.04-0.04,0.04-0.04c0.42-1.83,2.25-2.58,4.12-2.91
			c0.33-0.21,0.67-0.33,1.08-0.33h1.87c3.74,0,10.11,0,10.11,0c1.75,0,3.2,1.41,3.2,3.16l3.04,137.23
			C187.54,678.52,187.49,684.09,187.54,688.17z"/>
		<path class="st11" d="M376.85,631.63c0,50.76-32.62,86.55-46.56,99.57c-3.83,3.54-6.41,8.9-6.66,14.73
			c-1.08,25.63-4.08,95.78-4.58,106.98h-30.42c-0.5-11.19-3.49-81.34-4.58-106.98c-0.25-5.83-2.83-11.19-6.66-14.73
			c-13.94-13.02-46.56-48.81-46.56-99.57c0-64.58,44.4-93.16,72.98-93.16C332.46,538.46,376.85,567.05,376.85,631.63z"/>
	</g>
</g>
</svg>
